<mxfile modified="2021-12-15T09:48:30.450Z" host="app.diagrams.net" agent="5.0 (Windows NT 10.0; Win64; x64) AppleWebKit/537.36 (KHTML, like Gecko) Chrome/96.0.4664.93 Safari/537.36 Edg/96.0.1054.53" etag="NiU-XXDyftJxuJk1HxrM" version="15.7.0" type="github">
  <diagram id="l8hXMBHkgcEJcSW0mbfh" name="Page-1">
    <mxGraphModel dx="1511" dy="843" grid="1" gridSize="10" guides="1" tooltips="1" connect="1" arrows="1" fold="1" page="1" pageScale="1" pageWidth="1169" pageHeight="827" math="0" shadow="0">
      <root>
        <mxCell id="0" />
        <mxCell id="1" parent="0" />
        <mxCell id="R8ctW1b-srJAbuBpRHoN-1" value="A" style="ellipse;whiteSpace=wrap;html=1;aspect=fixed;" vertex="1" parent="1">
          <mxGeometry x="220" y="10" width="80" height="80" as="geometry" />
        </mxCell>
        <mxCell id="R8ctW1b-srJAbuBpRHoN-2" value="B" style="ellipse;whiteSpace=wrap;html=1;aspect=fixed;" vertex="1" parent="1">
          <mxGeometry x="30" y="110" width="80" height="80" as="geometry" />
        </mxCell>
        <mxCell id="R8ctW1b-srJAbuBpRHoN-3" value="C" style="ellipse;whiteSpace=wrap;html=1;aspect=fixed;" vertex="1" parent="1">
          <mxGeometry x="385" y="110" width="80" height="80" as="geometry" />
        </mxCell>
        <mxCell id="R8ctW1b-srJAbuBpRHoN-4" value="D" style="ellipse;whiteSpace=wrap;html=1;aspect=fixed;" vertex="1" parent="1">
          <mxGeometry x="30" y="290" width="80" height="80" as="geometry" />
        </mxCell>
        <mxCell id="R8ctW1b-srJAbuBpRHoN-5" value="E" style="ellipse;whiteSpace=wrap;html=1;aspect=fixed;" vertex="1" parent="1">
          <mxGeometry x="390" y="290" width="80" height="80" as="geometry" />
        </mxCell>
        <mxCell id="R8ctW1b-srJAbuBpRHoN-6" value="F" style="ellipse;whiteSpace=wrap;html=1;aspect=fixed;" vertex="1" parent="1">
          <mxGeometry x="140" y="430" width="80" height="80" as="geometry" />
        </mxCell>
        <mxCell id="R8ctW1b-srJAbuBpRHoN-7" value="G" style="ellipse;whiteSpace=wrap;html=1;aspect=fixed;" vertex="1" parent="1">
          <mxGeometry x="290" y="430" width="80" height="80" as="geometry" />
        </mxCell>
        <mxCell id="R8ctW1b-srJAbuBpRHoN-10" value="n=5, m=2" style="text;html=1;strokeColor=none;fillColor=none;align=center;verticalAlign=middle;whiteSpace=wrap;rounded=0;" vertex="1" parent="1">
          <mxGeometry y="10" width="60" height="30" as="geometry" />
        </mxCell>
        <mxCell id="R8ctW1b-srJAbuBpRHoN-15" value="OM(0)" style="text;html=1;strokeColor=none;fillColor=none;align=center;verticalAlign=middle;whiteSpace=wrap;rounded=0;" vertex="1" parent="1">
          <mxGeometry y="40" width="60" height="30" as="geometry" />
        </mxCell>
        <mxCell id="R8ctW1b-srJAbuBpRHoN-23" value="A" style="ellipse;whiteSpace=wrap;html=1;aspect=fixed;" vertex="1" parent="1">
          <mxGeometry x="220" y="10" width="80" height="80" as="geometry" />
        </mxCell>
        <mxCell id="R8ctW1b-srJAbuBpRHoN-24" value="B" style="ellipse;whiteSpace=wrap;html=1;aspect=fixed;" vertex="1" parent="1">
          <mxGeometry x="30" y="110" width="80" height="80" as="geometry" />
        </mxCell>
        <mxCell id="R8ctW1b-srJAbuBpRHoN-25" value="C" style="ellipse;whiteSpace=wrap;html=1;aspect=fixed;" vertex="1" parent="1">
          <mxGeometry x="385" y="110" width="80" height="80" as="geometry" />
        </mxCell>
        <mxCell id="R8ctW1b-srJAbuBpRHoN-96" style="edgeStyle=none;rounded=0;orthogonalLoop=1;jettySize=auto;html=1;exitX=1;exitY=0;exitDx=0;exitDy=0;entryX=0;entryY=0.5;entryDx=0;entryDy=0;startArrow=none;startFill=0;strokeColor=#007FFF;" edge="1" parent="1" source="R8ctW1b-srJAbuBpRHoN-26" target="R8ctW1b-srJAbuBpRHoN-25">
          <mxGeometry relative="1" as="geometry" />
        </mxCell>
        <mxCell id="R8ctW1b-srJAbuBpRHoN-97" style="edgeStyle=none;rounded=0;orthogonalLoop=1;jettySize=auto;html=1;exitX=1;exitY=0.5;exitDx=0;exitDy=0;startArrow=none;startFill=0;strokeColor=#007FFF;" edge="1" parent="1" source="R8ctW1b-srJAbuBpRHoN-26" target="R8ctW1b-srJAbuBpRHoN-27">
          <mxGeometry relative="1" as="geometry" />
        </mxCell>
        <mxCell id="R8ctW1b-srJAbuBpRHoN-99" style="edgeStyle=none;rounded=0;orthogonalLoop=1;jettySize=auto;html=1;exitX=0.5;exitY=1;exitDx=0;exitDy=0;startArrow=none;startFill=0;strokeColor=#007FFF;" edge="1" parent="1" source="R8ctW1b-srJAbuBpRHoN-26" target="R8ctW1b-srJAbuBpRHoN-28">
          <mxGeometry relative="1" as="geometry" />
        </mxCell>
        <mxCell id="R8ctW1b-srJAbuBpRHoN-100" style="edgeStyle=none;rounded=0;orthogonalLoop=1;jettySize=auto;html=1;exitX=1;exitY=1;exitDx=0;exitDy=0;entryX=0;entryY=0;entryDx=0;entryDy=0;startArrow=none;startFill=0;strokeColor=#007FFF;" edge="1" parent="1" source="R8ctW1b-srJAbuBpRHoN-26" target="R8ctW1b-srJAbuBpRHoN-29">
          <mxGeometry relative="1" as="geometry" />
        </mxCell>
        <mxCell id="R8ctW1b-srJAbuBpRHoN-26" value="D" style="ellipse;whiteSpace=wrap;html=1;aspect=fixed;" vertex="1" parent="1">
          <mxGeometry x="30" y="290" width="80" height="80" as="geometry" />
        </mxCell>
        <mxCell id="R8ctW1b-srJAbuBpRHoN-27" value="E" style="ellipse;whiteSpace=wrap;html=1;aspect=fixed;" vertex="1" parent="1">
          <mxGeometry x="390" y="290" width="80" height="80" as="geometry" />
        </mxCell>
        <mxCell id="R8ctW1b-srJAbuBpRHoN-28" value="F" style="ellipse;whiteSpace=wrap;html=1;aspect=fixed;" vertex="1" parent="1">
          <mxGeometry x="140" y="430" width="80" height="80" as="geometry" />
        </mxCell>
        <mxCell id="R8ctW1b-srJAbuBpRHoN-29" value="G" style="ellipse;whiteSpace=wrap;html=1;aspect=fixed;" vertex="1" parent="1">
          <mxGeometry x="290" y="430" width="80" height="80" as="geometry" />
        </mxCell>
        <mxCell id="R8ctW1b-srJAbuBpRHoN-53" value="A" style="ellipse;whiteSpace=wrap;html=1;aspect=fixed;" vertex="1" parent="1">
          <mxGeometry x="840" y="10" width="80" height="80" as="geometry" />
        </mxCell>
        <mxCell id="R8ctW1b-srJAbuBpRHoN-54" value="B" style="ellipse;whiteSpace=wrap;html=1;aspect=fixed;" vertex="1" parent="1">
          <mxGeometry x="650" y="110" width="80" height="80" as="geometry" />
        </mxCell>
        <mxCell id="R8ctW1b-srJAbuBpRHoN-55" value="C" style="ellipse;whiteSpace=wrap;html=1;aspect=fixed;" vertex="1" parent="1">
          <mxGeometry x="1005" y="110" width="80" height="80" as="geometry" />
        </mxCell>
        <mxCell id="R8ctW1b-srJAbuBpRHoN-56" value="D" style="ellipse;whiteSpace=wrap;html=1;aspect=fixed;" vertex="1" parent="1">
          <mxGeometry x="650" y="290" width="80" height="80" as="geometry" />
        </mxCell>
        <mxCell id="R8ctW1b-srJAbuBpRHoN-57" value="E" style="ellipse;whiteSpace=wrap;html=1;aspect=fixed;" vertex="1" parent="1">
          <mxGeometry x="1010" y="290" width="80" height="80" as="geometry" />
        </mxCell>
        <mxCell id="R8ctW1b-srJAbuBpRHoN-58" value="F" style="ellipse;whiteSpace=wrap;html=1;aspect=fixed;" vertex="1" parent="1">
          <mxGeometry x="760" y="430" width="80" height="80" as="geometry" />
        </mxCell>
        <mxCell id="R8ctW1b-srJAbuBpRHoN-59" value="G" style="ellipse;whiteSpace=wrap;html=1;aspect=fixed;" vertex="1" parent="1">
          <mxGeometry x="910" y="430" width="80" height="80" as="geometry" />
        </mxCell>
        <mxCell id="R8ctW1b-srJAbuBpRHoN-60" value="n=6, m=2" style="text;html=1;strokeColor=none;fillColor=none;align=center;verticalAlign=middle;whiteSpace=wrap;rounded=0;" vertex="1" parent="1">
          <mxGeometry x="620" y="10" width="60" height="30" as="geometry" />
        </mxCell>
        <mxCell id="R8ctW1b-srJAbuBpRHoN-68" value="A" style="ellipse;whiteSpace=wrap;html=1;aspect=fixed;" vertex="1" parent="1">
          <mxGeometry x="840" y="10" width="80" height="80" as="geometry" />
        </mxCell>
        <mxCell id="R8ctW1b-srJAbuBpRHoN-77" style="edgeStyle=none;rounded=0;orthogonalLoop=1;jettySize=auto;html=1;exitX=1;exitY=0.5;exitDx=0;exitDy=0;entryX=0;entryY=0.5;entryDx=0;entryDy=0;strokeColor=#00CC00;" edge="1" parent="1" source="R8ctW1b-srJAbuBpRHoN-69" target="R8ctW1b-srJAbuBpRHoN-70">
          <mxGeometry relative="1" as="geometry" />
        </mxCell>
        <mxCell id="R8ctW1b-srJAbuBpRHoN-78" style="edgeStyle=none;rounded=0;orthogonalLoop=1;jettySize=auto;html=1;exitX=0.5;exitY=1;exitDx=0;exitDy=0;strokeColor=#00CC00;startArrow=classic;startFill=1;" edge="1" parent="1" source="R8ctW1b-srJAbuBpRHoN-69" target="R8ctW1b-srJAbuBpRHoN-71">
          <mxGeometry relative="1" as="geometry" />
        </mxCell>
        <mxCell id="R8ctW1b-srJAbuBpRHoN-79" style="edgeStyle=none;rounded=0;orthogonalLoop=1;jettySize=auto;html=1;exitX=1;exitY=1;exitDx=0;exitDy=0;entryX=0.5;entryY=0;entryDx=0;entryDy=0;strokeColor=#00CC00;startArrow=classic;startFill=1;" edge="1" parent="1" source="R8ctW1b-srJAbuBpRHoN-69" target="R8ctW1b-srJAbuBpRHoN-73">
          <mxGeometry relative="1" as="geometry" />
        </mxCell>
        <mxCell id="R8ctW1b-srJAbuBpRHoN-80" style="edgeStyle=none;rounded=0;orthogonalLoop=1;jettySize=auto;html=1;exitX=1;exitY=1;exitDx=0;exitDy=0;entryX=0;entryY=0;entryDx=0;entryDy=0;strokeColor=#00CC00;startArrow=classic;startFill=1;" edge="1" parent="1" source="R8ctW1b-srJAbuBpRHoN-69" target="R8ctW1b-srJAbuBpRHoN-74">
          <mxGeometry relative="1" as="geometry" />
        </mxCell>
        <mxCell id="R8ctW1b-srJAbuBpRHoN-81" style="edgeStyle=none;rounded=0;orthogonalLoop=1;jettySize=auto;html=1;exitX=1;exitY=1;exitDx=0;exitDy=0;entryX=0;entryY=0.5;entryDx=0;entryDy=0;strokeColor=#00CC00;startArrow=classic;startFill=1;" edge="1" parent="1" source="R8ctW1b-srJAbuBpRHoN-69" target="R8ctW1b-srJAbuBpRHoN-72">
          <mxGeometry relative="1" as="geometry" />
        </mxCell>
        <mxCell id="R8ctW1b-srJAbuBpRHoN-69" value="B" style="ellipse;whiteSpace=wrap;html=1;aspect=fixed;" vertex="1" parent="1">
          <mxGeometry x="650" y="110" width="80" height="80" as="geometry" />
        </mxCell>
        <mxCell id="R8ctW1b-srJAbuBpRHoN-84" style="edgeStyle=none;rounded=0;orthogonalLoop=1;jettySize=auto;html=1;exitX=0.5;exitY=1;exitDx=0;exitDy=0;entryX=0.5;entryY=0;entryDx=0;entryDy=0;startArrow=classic;startFill=1;strokeColor=#00CC00;" edge="1" parent="1" source="R8ctW1b-srJAbuBpRHoN-70" target="R8ctW1b-srJAbuBpRHoN-72">
          <mxGeometry relative="1" as="geometry" />
        </mxCell>
        <mxCell id="R8ctW1b-srJAbuBpRHoN-85" style="edgeStyle=none;rounded=0;orthogonalLoop=1;jettySize=auto;html=1;exitX=0;exitY=1;exitDx=0;exitDy=0;entryX=1;entryY=0;entryDx=0;entryDy=0;startArrow=classic;startFill=1;strokeColor=#00CC00;" edge="1" parent="1" source="R8ctW1b-srJAbuBpRHoN-70" target="R8ctW1b-srJAbuBpRHoN-74">
          <mxGeometry relative="1" as="geometry" />
        </mxCell>
        <mxCell id="R8ctW1b-srJAbuBpRHoN-86" style="edgeStyle=none;rounded=0;orthogonalLoop=1;jettySize=auto;html=1;exitX=0;exitY=1;exitDx=0;exitDy=0;entryX=1;entryY=0;entryDx=0;entryDy=0;startArrow=classic;startFill=1;strokeColor=#00CC00;" edge="1" parent="1" source="R8ctW1b-srJAbuBpRHoN-70" target="R8ctW1b-srJAbuBpRHoN-73">
          <mxGeometry relative="1" as="geometry" />
        </mxCell>
        <mxCell id="R8ctW1b-srJAbuBpRHoN-87" style="edgeStyle=none;rounded=0;orthogonalLoop=1;jettySize=auto;html=1;exitX=0;exitY=1;exitDx=0;exitDy=0;entryX=1;entryY=0.5;entryDx=0;entryDy=0;startArrow=classic;startFill=1;strokeColor=#00CC00;" edge="1" parent="1" source="R8ctW1b-srJAbuBpRHoN-70" target="R8ctW1b-srJAbuBpRHoN-71">
          <mxGeometry relative="1" as="geometry" />
        </mxCell>
        <mxCell id="R8ctW1b-srJAbuBpRHoN-70" value="C" style="ellipse;whiteSpace=wrap;html=1;aspect=fixed;" vertex="1" parent="1">
          <mxGeometry x="1005" y="110" width="80" height="80" as="geometry" />
        </mxCell>
        <mxCell id="R8ctW1b-srJAbuBpRHoN-88" style="edgeStyle=none;rounded=0;orthogonalLoop=1;jettySize=auto;html=1;exitX=1;exitY=1;exitDx=0;exitDy=0;entryX=0;entryY=0;entryDx=0;entryDy=0;startArrow=classic;startFill=1;strokeColor=#00CC00;" edge="1" parent="1" source="R8ctW1b-srJAbuBpRHoN-71" target="R8ctW1b-srJAbuBpRHoN-73">
          <mxGeometry relative="1" as="geometry" />
        </mxCell>
        <mxCell id="R8ctW1b-srJAbuBpRHoN-91" style="edgeStyle=none;rounded=0;orthogonalLoop=1;jettySize=auto;html=1;exitX=1;exitY=0.5;exitDx=0;exitDy=0;entryX=0;entryY=0.5;entryDx=0;entryDy=0;startArrow=classic;startFill=1;strokeColor=#00CC00;" edge="1" parent="1" source="R8ctW1b-srJAbuBpRHoN-71" target="R8ctW1b-srJAbuBpRHoN-72">
          <mxGeometry relative="1" as="geometry" />
        </mxCell>
        <mxCell id="R8ctW1b-srJAbuBpRHoN-93" style="edgeStyle=none;rounded=0;orthogonalLoop=1;jettySize=auto;html=1;exitX=1;exitY=0.5;exitDx=0;exitDy=0;startArrow=classic;startFill=1;strokeColor=#00CC00;" edge="1" parent="1" source="R8ctW1b-srJAbuBpRHoN-71">
          <mxGeometry relative="1" as="geometry">
            <mxPoint x="920" y="440" as="targetPoint" />
          </mxGeometry>
        </mxCell>
        <mxCell id="R8ctW1b-srJAbuBpRHoN-71" value="D" style="ellipse;whiteSpace=wrap;html=1;aspect=fixed;" vertex="1" parent="1">
          <mxGeometry x="650" y="290" width="80" height="80" as="geometry" />
        </mxCell>
        <mxCell id="R8ctW1b-srJAbuBpRHoN-90" style="edgeStyle=none;rounded=0;orthogonalLoop=1;jettySize=auto;html=1;exitX=0.5;exitY=1;exitDx=0;exitDy=0;entryX=1;entryY=0.5;entryDx=0;entryDy=0;startArrow=classic;startFill=1;strokeColor=#00CC00;" edge="1" parent="1" source="R8ctW1b-srJAbuBpRHoN-72" target="R8ctW1b-srJAbuBpRHoN-74">
          <mxGeometry relative="1" as="geometry" />
        </mxCell>
        <mxCell id="R8ctW1b-srJAbuBpRHoN-72" value="E" style="ellipse;whiteSpace=wrap;html=1;aspect=fixed;" vertex="1" parent="1">
          <mxGeometry x="1010" y="290" width="80" height="80" as="geometry" />
        </mxCell>
        <mxCell id="R8ctW1b-srJAbuBpRHoN-89" style="edgeStyle=none;rounded=0;orthogonalLoop=1;jettySize=auto;html=1;exitX=1;exitY=0.5;exitDx=0;exitDy=0;entryX=0;entryY=0.5;entryDx=0;entryDy=0;startArrow=classic;startFill=1;strokeColor=#00CC00;" edge="1" parent="1" source="R8ctW1b-srJAbuBpRHoN-73" target="R8ctW1b-srJAbuBpRHoN-74">
          <mxGeometry relative="1" as="geometry" />
        </mxCell>
        <mxCell id="R8ctW1b-srJAbuBpRHoN-92" style="edgeStyle=none;rounded=0;orthogonalLoop=1;jettySize=auto;html=1;exitX=1;exitY=0;exitDx=0;exitDy=0;entryX=0;entryY=0.5;entryDx=0;entryDy=0;startArrow=classic;startFill=1;strokeColor=#00CC00;" edge="1" parent="1" source="R8ctW1b-srJAbuBpRHoN-73" target="R8ctW1b-srJAbuBpRHoN-72">
          <mxGeometry relative="1" as="geometry" />
        </mxCell>
        <mxCell id="R8ctW1b-srJAbuBpRHoN-73" value="F" style="ellipse;whiteSpace=wrap;html=1;aspect=fixed;" vertex="1" parent="1">
          <mxGeometry x="760" y="430" width="80" height="80" as="geometry" />
        </mxCell>
        <mxCell id="R8ctW1b-srJAbuBpRHoN-74" value="G" style="ellipse;whiteSpace=wrap;html=1;aspect=fixed;" vertex="1" parent="1">
          <mxGeometry x="910" y="430" width="80" height="80" as="geometry" />
        </mxCell>
        <mxCell id="R8ctW1b-srJAbuBpRHoN-76" value="OM(1)" style="text;html=1;strokeColor=none;fillColor=none;align=center;verticalAlign=middle;whiteSpace=wrap;rounded=0;" vertex="1" parent="1">
          <mxGeometry x="620" y="40" width="60" height="30" as="geometry" />
        </mxCell>
        <mxCell id="R8ctW1b-srJAbuBpRHoN-82" style="edgeStyle=none;rounded=0;orthogonalLoop=1;jettySize=auto;html=1;exitX=0.5;exitY=1;exitDx=0;exitDy=0;strokeColor=#00CC00;" edge="1" parent="1" source="R8ctW1b-srJAbuBpRHoN-76" target="R8ctW1b-srJAbuBpRHoN-76">
          <mxGeometry relative="1" as="geometry" />
        </mxCell>
        <mxCell id="R8ctW1b-srJAbuBpRHoN-83" style="edgeStyle=none;rounded=0;orthogonalLoop=1;jettySize=auto;html=1;exitX=1;exitY=0.5;exitDx=0;exitDy=0;entryX=0;entryY=0.5;entryDx=0;entryDy=0;strokeColor=#00CC00;startArrow=classic;startFill=1;" edge="1" parent="1">
          <mxGeometry relative="1" as="geometry">
            <mxPoint x="730" y="149.5" as="sourcePoint" />
            <mxPoint x="1005" y="149.5" as="targetPoint" />
          </mxGeometry>
        </mxCell>
        <mxCell id="R8ctW1b-srJAbuBpRHoN-95" value="eg：B majority(Va,Vc,...,Vg)得到A的决策" style="text;html=1;strokeColor=none;fillColor=none;align=center;verticalAlign=middle;whiteSpace=wrap;rounded=0;" vertex="1" parent="1">
          <mxGeometry x="570" y="70" width="160" height="30" as="geometry" />
        </mxCell>
      </root>
    </mxGraphModel>
  </diagram>
</mxfile>
